<?xml version="1.0" encoding="utf-8"?>
<!-- Generator: Adobe Illustrator 15.0.1, SVG Export Plug-In . SVG Version: 6.00 Build 0)  -->
<!DOCTYPE svg PUBLIC "-//W3C//DTD SVG 1.1//EN" "http://www.w3.org/Graphics/SVG/1.1/DTD/svg11.dtd">
<svg version="1.1" id="svg2" xmlns:svg="http://www.w3.org/2000/svg"
	 xmlns="http://www.w3.org/2000/svg" xmlns:xlink="http://www.w3.org/1999/xlink" x="0px" y="0px" width="304.868px" height="305px"
	 viewBox="0 0 304.868 305" enable-background="new 0 0 304.868 305" xml:space="preserve">
<path id="path2090" fill="#DE2910" d="M152.543,2.551c77.369,29.031,124.325,121.819,84.106,196.976l-98.158-98.643l37.464-37.618
	l-23.435-23.332c-12.921,12.668-33.477,15.367-47.335,9.781l-74.608,74.672L72.831,166.5l28.158-28.056l98.126,98.499
	c-48.017,26.373-114.581,18.055-163.704-32.983l-23.787,23.716c7.125,9.883,13.098,18.832,20.512,26.343
	c-0.636,0.772-2.681,2.457-2.721,2.509c-1.252-0.212-2.724-0.696-4.035-0.696c-12.658,0-22.882,11.028-22.882,23.687
	S12.824,302.5,25.482,302.5s23.485-10.425,23.485-23.083c0-1.475-0.327-2.823-0.595-4.222l3.666-3.588
	c56.479,38.111,118.37,42.857,184.972,2.992l27.507,27.602l37.638-37.148l-27.679-27.975
	C353.918,117.317,248.002-0.317,152.543,2.551z"/>
</svg>
